<svg xmlns="http://www.w3.org/2000/svg" version="1.1" xlink="http://www.w3.org/1999/xlink" xmlns:svgjs="http://svgjs.com/svgjs" width="100%" height="100%" viewBox="8.937379837036133 12.596365928649902 79.53961944580078 75.65363311767578"><path d="M15.367 53.531c-1.18 0-2.14.96-2.14 2.14V73.25c0 8.28 6.718 15 15 15h45.25c8.28 0 15-6.72 15-15V27.984c0-8.282-6.72-15-15-15-1.18 0-2.141.96-2.141 2.14v3.531c0 1.18.96 2.141 2.14 2.141a7.189 7.189 0 0 1 7.188 7.188v45.265a7.189 7.189 0 0 1-7.188 7.188h-45.25a7.189 7.189 0 0 1-7.187-7.188V55.672c0-1.18-.961-2.141-2.14-2.141z"></path><path d="M36.039 48.203a2.813 2.813 0 0 0 3.453-1.977l8.04-29.5a2.813 2.813 0 0 0-1.977-3.453l-2.11-.578a2.813 2.813 0 0 0-3.453 1.977l-8.039 29.5a2.813 2.813 0 0 0 1.977 3.453zM18.344 30.445l5.367 6.258a2.819 2.819 0 0 1-.304 3.969l-1.665 1.422a2.819 2.819 0 0 1-3.968-.305l-8.157-9.516a2.809 2.809 0 0 1 0-3.664l8.157-9.515a2.818 2.818 0 0 1 3.968-.305l1.665 1.422a2.818 2.818 0 0 1 .304 3.969l-5.367 6.257zm37-10.218a2.818 2.818 0 0 0-.305 3.969l5.368 6.258-5.368 6.257a2.819 2.819 0 0 0 .305 3.97l1.664 1.421a2.819 2.819 0 0 0 3.969-.305l8.156-9.515a2.809 2.809 0 0 0 0-3.664l-8.156-9.516a2.818 2.818 0 0 0-3.969-.305l-1.664 1.422z"></path></svg>